<svg width="89" height="19" viewBox="0 0 89 19" fill="none" xmlns="http://www.w3.org/2000/svg">
<line x1="4.53857" y1="9.02789" x2="81.9477" y2="9.02789" stroke="#CCCCCC" stroke-width="0.74754" stroke-dasharray="2.24 2.24"/>
<path d="M43.8444 16.4423H42.8237C42.7211 16.4423 42.6202 16.4188 42.5302 16.3739C42.4401 16.329 42.3638 16.2642 42.3083 16.1855C42.2527 16.1067 42.2196 16.0164 42.2121 15.923C42.2045 15.8295 42.2227 15.7358 42.265 15.6504L44.7367 10.6658L41.0254 10.5905L39.6718 12.0892C39.4138 12.3856 39.2079 12.5177 38.6825 12.5177H37.9954C37.8866 12.521 37.7786 12.5001 37.6805 12.4571C37.5824 12.414 37.497 12.35 37.4318 12.2704C37.3405 12.1579 37.2508 11.9673 37.3382 11.6953L38.0982 9.20743C38.1039 9.18886 38.1108 9.17029 38.1185 9.15207C38.1189 9.15033 38.1189 9.14855 38.1185 9.14681C38.1106 9.12861 38.1038 9.11001 38.0982 9.0911L37.3374 6.58742C37.255 6.32076 37.3451 6.13435 37.4356 6.02467C37.4964 5.95098 37.5752 5.89136 37.6658 5.85058C37.7563 5.80981 37.8561 5.78902 37.9571 5.78989H38.6825C39.0748 5.78989 39.4556 5.95073 39.6795 6.21038L41.005 7.68386L44.7367 7.6334L42.2658 2.65759C42.2234 2.57224 42.2051 2.47856 42.2126 2.38509C42.2201 2.29163 42.2531 2.20137 42.3086 2.12257C42.3641 2.04376 42.4403 1.97892 42.5303 1.93398C42.6203 1.88904 42.7212 1.86543 42.8237 1.86531H43.8555C43.9995 1.86795 44.1409 1.9002 44.2694 1.95965C44.3978 2.0191 44.51 2.10423 44.5975 2.20871L49.3924 7.53493L51.6076 7.48167C51.7698 7.47361 52.2191 7.47081 52.3231 7.47081C54.4419 7.47186 55.7073 8.10049 55.7073 9.15382C55.7073 9.48531 55.5624 10.0999 54.5926 10.491C54.0202 10.7223 53.2564 10.8393 52.3223 10.8393C52.2195 10.8393 51.7713 10.8365 51.6068 10.8284L49.392 10.7745L44.5852 16.1007C44.4976 16.2047 44.3856 16.2894 44.2574 16.3486C44.1291 16.4077 43.988 16.4397 43.8444 16.4423V16.4423Z" fill="#1262AE"/>
<circle cx="4.73208" cy="9.40167" r="2.99016" fill="white" stroke="#1262AE" stroke-width="1.49508"/>
<circle cx="84.9809" cy="9.08993" r="2.99016" fill="white" stroke="#1262AE" stroke-width="1.49508"/>
</svg>
