<svg width="25" height="24" viewBox="0 0 25 24" fill="none" xmlns="http://www.w3.org/2000/svg">
<path d="M17.0044 0.955377C16.5119 0.467732 15.844 0.193802 15.1477 0.193802C14.4513 0.193802 13.7835 0.467732 13.2909 0.955377L1.75829 12.3815C1.51438 12.6232 1.3209 12.91 1.1889 13.2257C1.05689 13.5414 0.988953 13.8798 0.988953 14.2215C0.988953 14.5632 1.05689 14.9016 1.1889 15.2173C1.3209 15.533 1.51438 15.8199 1.75829 16.0615L3.12647 17.4158C3.72184 18.0067 4.55886 17.9015 5.06434 17.6031C5.34317 17.4391 5.66922 17.3718 5.99098 17.4118C6.31274 17.4517 6.6119 17.5968 6.8412 17.8239C7.0705 18.0511 7.21689 18.3474 7.25725 18.6662C7.29761 18.985 7.22965 19.308 7.06408 19.5842C6.76406 20.085 6.65666 20.9142 7.2532 21.504L8.62255 22.8594C8.86645 23.101 9.15601 23.2927 9.47469 23.4235C9.79337 23.5542 10.1349 23.6215 10.4799 23.6215C10.8248 23.6215 11.1664 23.5542 11.485 23.4235C11.8037 23.2927 12.0933 23.101 12.3372 22.8594L23.8687 11.4355C24.1126 11.1939 24.3061 10.907 24.4381 10.5913C24.5701 10.2756 24.638 9.93727 24.638 9.59555C24.638 9.25383 24.5701 8.91546 24.4381 8.59976C24.3061 8.28405 24.1126 7.9972 23.8687 7.75557L22.5017 6.40015C21.9063 5.81034 21.0681 5.91443 20.5626 6.2128C20.2838 6.37682 19.9578 6.44416 19.636 6.40417C19.3142 6.36419 19.0151 6.21916 18.7858 5.992C18.5565 5.76484 18.4101 5.46848 18.3697 5.14972C18.3294 4.83096 18.3973 4.50796 18.5629 4.23173C18.8641 3.73096 18.9703 2.90176 18.3738 2.31195L17.0056 0.955377H17.0044Z" fill="white"/>
</svg>
