<svg width="50" height="50" viewBox="0 0 50 50" fill="none" xmlns="http://www.w3.org/2000/svg">
<rect x="0.595764" y="0.467743" width="48.8794" height="48.8794" rx="11.9606" fill="#DA3636"/>
<path d="M31.3654 34.4346C31.3244 33.5574 31.2701 32.6849 31.2266 31.8143C31.0859 29.0909 31.0975 26.3275 30.9503 23.5906C30.8031 20.8742 30.8904 18.156 30.8128 15.4397C30.7971 14.8752 30.8223 13.7603 30.2382 13.4384C28.9816 12.7471 28.2356 14.6328 27.9159 15.4006C27.3396 16.7941 27.0067 18.2597 26.595 19.7034C26.2442 20.9392 25.8447 22.1709 25.7093 23.4504C25.609 24.4105 25.6182 25.4852 26.1197 26.3503C26.3716 26.785 26.8071 27.0809 27.3029 27.206C27.8176 27.3376 28.406 27.1653 28.8943 27.3977C29.0202 27.4585 29.1311 27.5849 29.1816 27.7125C29.3399 28.1239 29.1901 28.7479 29.1407 29.1723C28.9839 30.5393 28.8182 31.92 28.744 33.2935C28.7001 34.1242 28.6515 35.1881 29.1541 35.9119C29.4621 36.3514 30.0863 36.7618 30.6496 36.5433C31.4914 36.2211 31.4004 35.1326 31.3654 34.4346V34.4346Z" fill="white"/>
<path d="M20.6558 14.0448C20.4139 14.1418 20.5056 15.0068 20.4948 15.2725C20.4789 15.75 20.5115 16.3818 20.454 17.0006C20.4537 17.0061 20.4529 17.0099 20.4521 17.0138C20.4471 17.0568 20.443 17.1032 20.436 17.1521C20.4284 17.1994 20.4204 17.245 20.4146 17.2919C20.363 17.5936 20.2649 17.9508 20.0793 18.1221C19.8686 18.318 19.3965 18.2768 19.2325 18.0453C18.9643 17.6685 18.9844 16.8272 18.9681 16.8024C18.9572 16.4044 18.8992 15.2007 18.8122 14.407C18.805 14.3472 18.7935 13.9875 18.465 13.9491C18.3119 13.9324 18.1507 14.063 18.0985 14.3013C17.9442 15.005 17.7997 16.3463 17.7906 16.5572C17.7888 16.5777 17.7879 16.6015 17.7878 16.6214C17.7878 16.6214 17.787 16.6253 17.7875 16.627C17.7865 16.6708 17.7343 17.7216 17.4684 18.0842C17.3294 18.2742 16.9685 18.4237 16.6099 18.2226C16.4671 18.1416 16.3692 17.9856 16.3002 17.8184C15.9252 16.6512 16.2619 15.3654 16.3098 14.7528C16.3239 14.5804 16.48 14.0051 16.1318 14.0243C15.6076 14.0528 14.9307 16.2862 14.8097 16.7981C14.5129 18.0718 14.4679 19.4327 14.9841 20.6614C15.2709 21.3417 15.8317 21.8986 16.5272 22.1686C16.8346 22.2869 17.1762 22.3727 17.5379 22.4225C17.4077 25.318 17.26 28.3396 17.1254 30.0211C17.0219 31.2866 16.8997 32.5659 16.9162 33.8366C16.9259 34.5958 16.9179 35.5011 17.4162 36.1376C17.9376 36.8027 19.0371 36.4968 19.334 35.7109C19.667 34.825 19.5702 33.7927 19.4568 32.1662C19.3429 30.538 19.2147 28.3168 19.1441 27.1217C19.0407 25.3621 19.0047 23.8244 18.9947 22.4214C19.9207 22.2891 20.7843 21.8918 21.2676 21.1611C21.4797 20.8415 21.6192 20.4844 21.7146 20.117C21.8609 19.5605 21.9322 18.9508 21.9006 18.3768C21.8684 17.8483 21.4341 13.733 20.6558 14.0448V14.0448Z" fill="white"/>
</svg>
