<svg width="50" height="50" viewBox="0 0 50 50" fill="none" xmlns="http://www.w3.org/2000/svg">
<rect x="0.15271" y="0.467743" width="48.8794" height="48.8794" rx="11.9606" fill="#F98966"/>
<path d="M23.737 21.5155H25.449V20.6675C25.449 20.4426 25.5392 20.2269 25.6998 20.0679C25.8603 19.9089 26.078 19.8195 26.3051 19.8195H28.8731C29.1001 19.8195 29.3179 19.9089 29.4784 20.0679C29.6389 20.2269 29.7291 20.4426 29.7291 20.6675V21.5155H33.1532V18.1235C33.1532 17.2239 32.7925 16.3612 32.1503 15.7251C31.5082 15.0889 30.6372 14.7316 29.7291 14.7316H19.4569C18.5488 14.7316 17.6779 15.0889 17.0357 15.7251C16.3936 16.3612 16.0328 17.2239 16.0328 18.1235V21.5155H19.4569V20.6675C19.4569 20.4426 19.5471 20.2269 19.7076 20.0679C19.8682 19.9089 20.0859 19.8195 20.3129 19.8195H22.881C23.108 19.8195 23.3257 19.9089 23.4863 20.0679C23.6468 20.2269 23.737 20.4426 23.737 20.6675V21.5155Z" fill="white"/>
<path d="M16.889 23.2115C15.7539 23.2115 14.6653 23.6582 13.8626 24.4534C13.06 25.2485 12.6091 26.327 12.6091 27.4515V34.2354C12.6091 34.4603 12.6993 34.676 12.8598 34.835C13.0203 34.9941 13.238 35.0834 13.4651 35.0834C13.6921 35.0834 13.9098 34.9941 14.0703 34.835C14.2308 34.676 14.321 34.4603 14.321 34.2354V29.9955H34.8646V34.2354C34.8646 34.4603 34.9548 34.676 35.1153 34.835C35.2758 34.9941 35.4936 35.0834 35.7206 35.0834C35.9476 35.0834 36.1653 34.9941 36.3258 34.835C36.4864 34.676 36.5766 34.4603 36.5766 34.2354V27.4515C36.5766 26.327 36.1256 25.2485 35.323 24.4534C34.5204 23.6582 33.4318 23.2115 32.2966 23.2115H16.889Z" fill="white"/>
</svg>
