<svg width="19" height="19" viewBox="0 0 19 19" fill="none" xmlns="http://www.w3.org/2000/svg">
<path d="M16.4331 14.6789C15.9526 14.2505 15.5318 13.7594 15.1823 13.2188C14.8006 12.4725 14.5719 11.6575 14.5095 10.8216V8.35974C14.5128 7.04687 14.0365 5.77798 13.1703 4.79148C12.304 3.80497 11.1072 3.16876 9.80496 3.00238V2.35949C9.80496 2.18304 9.73486 2.01382 9.61009 1.88905C9.48532 1.76428 9.3161 1.69418 9.13965 1.69418C8.9632 1.69418 8.79397 1.76428 8.6692 1.88905C8.54443 2.01382 8.47434 2.18304 8.47434 2.35949V3.01234C7.18371 3.19072 6.00146 3.83078 5.14655 4.81397C4.29165 5.79716 3.82201 7.05686 3.82464 8.35974V10.8216C3.76222 11.6575 3.53349 12.4725 3.15186 13.2188C2.80843 13.7582 2.39445 14.2492 1.92091 14.6789C1.86775 14.7256 1.82514 14.7831 1.79593 14.8476C1.76671 14.912 1.75155 14.982 1.75146 15.0527V15.7305C1.75146 15.8627 1.80397 15.9894 1.89743 16.0829C1.99089 16.1763 2.11765 16.2288 2.24982 16.2288H16.1042C16.2364 16.2288 16.3632 16.1763 16.4566 16.0829C16.5501 15.9894 16.6026 15.8627 16.6026 15.7305V15.0527C16.6025 14.982 16.5873 14.912 16.5581 14.8476C16.5289 14.7831 16.4863 14.7256 16.4331 14.6789ZM2.78805 15.2321C3.25173 14.7842 3.65998 14.2823 4.00405 13.737C4.48477 12.8358 4.76526 11.8413 4.82634 10.8216V8.35974C4.80658 7.77569 4.90455 7.19362 5.11442 6.64821C5.32429 6.1028 5.64177 5.6052 6.04795 5.18504C6.45413 4.76489 6.94071 4.43076 7.4787 4.20256C8.0167 3.97437 8.59512 3.85677 9.17952 3.85677C9.76391 3.85677 10.3423 3.97437 10.8803 4.20256C11.4183 4.43076 11.9049 4.76489 12.3111 5.18504C12.7173 5.6052 13.0347 6.1028 13.2446 6.64821C13.4545 7.19362 13.5525 7.77569 13.5327 8.35974V10.8216C13.5938 11.8413 13.8743 12.8358 14.355 13.737C14.6991 14.2823 15.1073 14.7842 15.571 15.2321H2.78805Z" fill="#424242"/>
<path d="M9.20208 17.8638C9.51601 17.8565 9.81727 17.7385 10.0526 17.5306C10.2879 17.3226 10.4421 17.0382 10.4878 16.7275H7.86647C7.91355 17.0466 8.07495 17.3378 8.32063 17.5468C8.56631 17.7558 8.87955 17.8684 9.20208 17.8638V17.8638Z" fill="#424242"/>
<circle cx="14.0286" cy="4.87418" r="2.61639" fill="#F99A0E" stroke="white" stroke-width="0.74754"/>
</svg>
