<svg width="14" height="14" viewBox="0 0 14 14" fill="none" xmlns="http://www.w3.org/2000/svg">
<path d="M12.7411 5.49636L9.01129 4.91012L7.34396 1.25448C7.29842 1.15439 7.2235 1.07336 7.13095 1.02411C6.89885 0.900193 6.61679 1.00346 6.50074 1.25448L4.83341 4.91012L1.10358 5.49636C1.00075 5.51225 0.906731 5.56468 0.834749 5.64411C0.747727 5.74084 0.699774 5.87098 0.701427 6.00593C0.70308 6.14088 0.754203 6.2696 0.843563 6.3638L3.54214 9.2092L2.90459 13.2271C2.88964 13.3205 2.8992 13.4167 2.9322 13.5046C2.96519 13.5924 3.02029 13.6686 3.09126 13.7243C3.16222 13.78 3.24621 13.8132 3.33369 13.8199C3.42117 13.8267 3.50866 13.8068 3.58622 13.7625L6.92235 11.8655L10.2585 13.7625C10.3496 13.8149 10.4553 13.8324 10.5567 13.8133C10.8123 13.7657 10.9842 13.5035 10.9401 13.2271L10.3026 9.2092L13.0011 6.3638C13.0746 6.28596 13.1231 6.18428 13.1378 6.07307C13.1774 5.79504 12.9982 5.53767 12.7411 5.49636V5.49636Z" fill="#FDBF00"/>
</svg>
