<svg width="14" height="14" viewBox="0 0 14 14" fill="none" xmlns="http://www.w3.org/2000/svg">
<path d="M12.9766 5.49636L9.23964 4.91012L7.5691 1.25448C7.52348 1.15439 7.44841 1.07336 7.35569 1.02411C7.12314 0.900193 6.84054 1.00346 6.72427 1.25448L5.05373 4.91012L1.31672 5.49636C1.2137 5.51225 1.1195 5.56468 1.04738 5.64411C0.960188 5.74084 0.912143 5.87098 0.913799 6.00593C0.915455 6.14088 0.966676 6.2696 1.05621 6.3638L3.75998 9.2092L3.1212 13.2271C3.10622 13.3205 3.1158 13.4167 3.14886 13.5046C3.18192 13.5924 3.23713 13.6686 3.30823 13.7243C3.37933 13.78 3.46347 13.8132 3.55113 13.8199C3.63878 13.8267 3.72643 13.8068 3.80413 13.7625L7.14669 11.8655L10.4892 13.7625C10.5805 13.8149 10.6865 13.8324 10.788 13.8133C11.0441 13.7657 11.2163 13.5035 11.1722 13.2271L10.5334 9.2092L13.2372 6.3638C13.3108 6.28596 13.3593 6.18428 13.374 6.07307C13.4138 5.79504 13.2342 5.53767 12.9766 5.49636V5.49636Z" fill="#FDBF00"/>
</svg>
