<svg width="21" height="25" viewBox="0 0 21 25" fill="none" xmlns="http://www.w3.org/2000/svg">
<path d="M0.458055 17.8678C0.458055 18.9642 0.948532 19.9485 1.71569 20.6337V22.2284C1.71569 23.2625 2.5583 24.0973 3.60214 24.0973C4.64598 24.0973 5.48859 23.2625 5.48859 22.2284V21.6055H15.5497V22.2284C15.5497 23.2501 16.3923 24.0973 17.4361 24.0973C18.4674 24.0973 19.3226 23.2625 19.3226 22.2284V20.6337C20.0897 19.9485 20.5802 18.9642 20.5802 17.8678V5.40881C20.5802 1.04817 16.0779 0.425217 10.5191 0.425217C4.96039 0.425217 0.458055 1.04817 0.458055 5.40881V17.8678ZM4.85978 19.1137C3.81594 19.1137 2.97332 18.2789 2.97332 17.2449C2.97332 16.2108 3.81594 15.376 4.85978 15.376C5.90361 15.376 6.74623 16.2108 6.74623 17.2449C6.74623 18.2789 5.90361 19.1137 4.85978 19.1137ZM16.1785 19.1137C15.1347 19.1137 14.292 18.2789 14.292 17.2449C14.292 16.2108 15.1347 15.376 16.1785 15.376C17.2223 15.376 18.0649 16.2108 18.0649 17.2449C18.0649 18.2789 17.2223 19.1137 16.1785 19.1137ZM18.0649 11.6383H2.97332V5.40881H18.0649V11.6383Z" fill="white"/>
</svg>
