<svg width="20" height="18" viewBox="0 0 20 18" fill="none" xmlns="http://www.w3.org/2000/svg">
<path d="M18.0179 0.206207H2.40385C1.32745 0.206207 0.452087 1.07341 0.452087 2.13976V15.6747C0.452087 16.741 1.32745 17.6082 2.40385 17.6082H18.0179C19.0943 17.6082 19.9697 16.741 19.9697 15.6747V2.13976C19.9697 1.07341 19.0943 0.206207 18.0179 0.206207ZM18.0189 6.00688H17.5651L14.9625 2.13976H18.0179L18.0189 6.00688ZM13.6265 11.8075L8.25913 14.7079V8.90721L13.6265 11.8075ZM12.6857 6.00688L10.0831 2.13976H12.6164L15.2191 6.00688H12.6857ZM10.3397 6.00688H7.80632L5.20365 2.13976H7.73704L10.3397 6.00688ZM2.40385 2.13976H2.85763L5.46031 6.00688H2.40385V2.13976Z" fill="white"/>
</svg>
