<svg width="13" height="14" viewBox="0 0 13 14" fill="none" xmlns="http://www.w3.org/2000/svg">
<path d="M12.5284 5.49636L8.79861 4.91012L7.13128 1.25448C7.08574 1.15439 7.01082 1.07336 6.91827 1.02411C6.68617 0.900193 6.40412 1.00346 6.28807 1.25448L4.62073 4.91012L0.890902 5.49636C0.788071 5.51225 0.694054 5.56468 0.622072 5.64411C0.53505 5.74084 0.487097 5.87098 0.48875 6.00593C0.490403 6.14088 0.541526 6.2696 0.630886 6.3638L3.32947 9.2092L2.69192 13.2271C2.67696 13.3205 2.68653 13.4167 2.71952 13.5046C2.75251 13.5924 2.80762 13.6686 2.87858 13.7243C2.94955 13.78 3.03353 13.8132 3.12101 13.8199C3.2085 13.8267 3.29598 13.8068 3.37354 13.7625L6.70967 11.8655L10.0458 13.7625C10.1369 13.8149 10.2427 13.8324 10.344 13.8133C10.5996 13.7657 10.7715 13.5035 10.7274 13.2271L10.0899 9.2092L12.7885 6.3638C12.8619 6.28596 12.9104 6.18428 12.9251 6.07307C12.9647 5.79504 12.7855 5.53767 12.5284 5.49636V5.49636Z" fill="#FDBF00"/>
</svg>
