<svg width="22" height="21" viewBox="0 0 22 21" fill="none" xmlns="http://www.w3.org/2000/svg">
<path d="M18.8793 4.23271C18.6437 3.58952 17.984 3.13165 17.2065 3.13165H14.2613V2.04149C14.2613 1.4419 13.7312 0.951324 13.0833 0.951324H8.37099C7.72306 0.951324 7.19293 1.4419 7.19293 2.04149V3.13165H4.24776C3.47024 3.13165 2.8223 3.58952 2.57491 4.23271L0.254114 10.4139C0.17165 10.6429 0.124527 10.8827 0.124527 11.1334V18.939C0.124527 19.8438 0.913832 20.5742 1.89163 20.5742C2.86942 20.5742 3.65873 19.8438 3.65873 18.939V18.3939H17.7955V18.939C17.7955 19.8329 18.5848 20.5742 19.5626 20.5742C20.5286 20.5742 21.3297 19.8438 21.3297 18.939V11.1334C21.3297 10.8936 21.2826 10.6429 21.2001 10.4139L18.8793 4.23271ZM4.24776 15.1234C3.26997 15.1234 2.48066 14.393 2.48066 13.4882C2.48066 12.5834 3.26997 11.8529 4.24776 11.8529C5.22556 11.8529 6.01486 12.5834 6.01486 13.4882C6.01486 14.393 5.22556 15.1234 4.24776 15.1234ZM17.2065 15.1234C16.2287 15.1234 15.4394 14.393 15.4394 13.4882C15.4394 12.5834 16.2287 11.8529 17.2065 11.8529C18.1843 11.8529 18.9736 12.5834 18.9736 13.4882C18.9736 14.393 18.1843 15.1234 17.2065 15.1234ZM2.48066 9.67262L4.24776 4.76689H17.2065L18.9736 9.67262H2.48066Z" fill="white"/>
</svg>
