<svg width="13" height="14" viewBox="0 0 13 14" fill="none" xmlns="http://www.w3.org/2000/svg">
<path d="M12.1664 5.49636L8.43659 4.91012L6.76927 1.25448C6.72373 1.15439 6.64881 1.07336 6.55626 1.02411C6.32415 0.900193 6.0421 1.00346 5.92605 1.25448L4.25872 4.91012L0.528902 5.49636C0.426071 5.51225 0.332054 5.56468 0.260072 5.64411C0.173051 5.74084 0.125098 5.87098 0.12675 6.00593C0.128403 6.14088 0.179526 6.2696 0.268886 6.3638L2.96746 9.2092L2.32991 13.2271C2.31496 13.3205 2.32452 13.4167 2.35752 13.5046C2.39051 13.5924 2.44561 13.6686 2.51658 13.7243C2.58754 13.78 2.67152 13.8132 2.75901 13.8199C2.84649 13.8267 2.93397 13.8068 3.01153 13.7625L6.34766 11.8655L9.68379 13.7625C9.77486 13.8149 9.88063 13.8324 9.982 13.8133C10.2376 13.7657 10.4095 13.5035 10.3654 13.2271L9.72786 9.2092L12.4264 6.3638C12.4999 6.28596 12.5484 6.18428 12.563 6.07307C12.6027 5.79504 12.4235 5.53767 12.1664 5.49636V5.49636Z" fill="#FDBF00"/>
</svg>
