<svg width="20" height="20" viewBox="0 0 20 20" fill="none" xmlns="http://www.w3.org/2000/svg">
<path d="M9.9801 17.8543C7.93734 17.8543 5.97825 17.0428 4.5338 15.5983C3.08935 14.1539 2.27787 12.1948 2.27787 10.152C2.27787 8.10928 3.08935 6.15018 4.5338 4.70574C5.97825 3.26129 7.93734 2.44981 9.9801 2.44981C12.0229 2.44981 13.9819 3.26129 15.4264 4.70574C16.8708 6.15018 17.6823 8.10928 17.6823 10.152C17.6823 12.1948 16.8708 14.1539 15.4264 15.5983C13.9819 17.0428 12.0229 17.8543 9.9801 17.8543ZM9.9801 18.9546C12.3147 18.9546 14.5536 18.0272 16.2044 16.3764C17.8552 14.7256 18.7826 12.4866 18.7826 10.152C18.7826 7.81745 17.8552 5.57849 16.2044 3.92769C14.5536 2.2769 12.3147 1.34949 9.9801 1.34949C7.64552 1.34949 5.40655 2.2769 3.75576 3.92769C2.10496 5.57849 1.17755 7.81745 1.17755 10.152C1.17755 12.4866 2.10496 14.7256 3.75576 16.3764C5.40655 18.0272 7.64552 18.9546 9.9801 18.9546V18.9546Z" fill="#1262AF"/>
<path d="M8.01515 6.41428C8.11895 6.36083 8.23548 6.33705 8.35193 6.34556C8.46837 6.35407 8.58021 6.39454 8.67513 6.46251L13.1173 9.63548C13.1996 9.69418 13.2666 9.77168 13.3129 9.86153C13.3591 9.95138 13.3833 10.051 13.3833 10.152C13.3833 10.2531 13.3591 10.3527 13.3129 10.4425C13.2666 10.5324 13.1996 10.6099 13.1173 10.6686L8.67513 13.8416C8.58024 13.9095 8.46846 13.9499 8.35207 13.9584C8.23569 13.9669 8.11922 13.9432 8.01545 13.8898C7.91169 13.8364 7.82466 13.7554 7.76393 13.6558C7.70319 13.5562 7.67111 13.4417 7.6712 13.325V6.97907C7.67108 6.86241 7.70312 6.74797 7.7638 6.64833C7.82448 6.54869 7.91145 6.46771 8.01515 6.41428V6.41428Z" fill="#1262AF"/>
</svg>
