<svg width="19" height="20" viewBox="0 0 19 20" fill="none" xmlns="http://www.w3.org/2000/svg">
<g clip-path="url(#clip0_1_1472)">
<path d="M9.61811 17.8543C7.57535 17.8543 5.61626 17.0428 4.17182 15.5983C2.72737 14.1539 1.91589 12.1948 1.91589 10.152C1.91589 8.10928 2.72737 6.15018 4.17182 4.70574C5.61626 3.26129 7.57535 2.44981 9.61811 2.44981C11.6609 2.44981 13.62 3.26129 15.0644 4.70574C16.5089 6.15018 17.3203 8.10928 17.3203 10.152C17.3203 12.1948 16.5089 14.1539 15.0644 15.5983C13.62 17.0428 11.6609 17.8543 9.61811 17.8543ZM9.61811 18.9546C11.9527 18.9546 14.1917 18.0272 15.8425 16.3764C17.4933 14.7256 18.4207 12.4866 18.4207 10.152C18.4207 7.81745 17.4933 5.57849 15.8425 3.92769C14.1917 2.2769 11.9527 1.34949 9.61811 1.34949C7.28353 1.34949 5.04457 2.2769 3.39377 3.92769C1.74298 5.57849 0.815567 7.81745 0.815567 10.152C0.815567 12.4866 1.74298 14.7256 3.39377 16.3764C5.04457 18.0272 7.28353 18.9546 9.61811 18.9546V18.9546Z" fill="#1262AF"/>
<path d="M7.65315 6.41428C7.75695 6.36083 7.87349 6.33705 7.98993 6.34556C8.10637 6.35407 8.21821 6.39454 8.31313 6.46251L12.7553 9.63548C12.8376 9.69418 12.9046 9.77168 12.9509 9.86153C12.9971 9.95138 13.0213 10.051 13.0213 10.152C13.0213 10.2531 12.9971 10.3527 12.9509 10.4425C12.9046 10.5324 12.8376 10.6099 12.7553 10.6686L8.31313 13.8416C8.21824 13.9095 8.10646 13.9499 7.99007 13.9584C7.87369 13.9669 7.75722 13.9432 7.65346 13.8898C7.54969 13.8364 7.46266 13.7554 7.40193 13.6558C7.34119 13.5562 7.30911 13.4417 7.3092 13.325V6.97907C7.30908 6.86241 7.34112 6.74797 7.4018 6.64833C7.46248 6.54869 7.54945 6.46771 7.65315 6.41428V6.41428Z" fill="#1262AF"/>
</g>
<defs>
<clipPath id="clip0_1_1472">
<rect width="18.6885" height="18.6885" fill="white" transform="translate(0.273865 0.807861)"/>
</clipPath>
</defs>
</svg>
